<svg xmlns="http://www.w3.org/2000/svg" viewBox="0 0 100 100"><defs><style>.a{fill:#515151;}</style></defs><path class="a" d="M61,50c-2.48,2.4-6.28,3.6-11.37,3.6h-8.4V71.88H35.52V28.2H49.63q7.4,0,11.25,3.57A12,12,0,0,1,64.73,41,12.05,12.05,0,0,1,61,50Zm-4.35-3.16A7.62,7.62,0,0,0,58.9,41q0-8.08-9.27-8.08h-8.4v16h8.4Q54.38,48.94,56.65,46.88Z"/><path class="a" d="M.25.17V99.91H100V.17ZM47.74,50,3.62,94.16V5.92ZM6,3.54H94.25L50.13,47.66ZM50.13,52.42,94.25,96.54H6ZM52.51,50,96.63,5.92V94.16Z"/></svg>