<svg xmlns="http://www.w3.org/2000/svg" viewBox="0 0 100 100"><defs><style>.a{fill:#191919;}</style></defs><path class="a" d="M96.62,3.38V96.62H3.38V3.38H96.62M100,0H0V100H100V0Z"/><path class="a" d="M63.57,40.86a13.51,13.51,0,0,0-5.28-5.94,15.16,15.16,0,0,0-8-2.11A16.35,16.35,0,0,0,42,34.92a14.81,14.81,0,0,0-5.78,6A18.87,18.87,0,0,0,34.1,50a18.67,18.67,0,0,0,2.11,9,14.86,14.86,0,0,0,5.78,6,16.25,16.25,0,0,0,8.26,2.11,15,15,0,0,0,10.56-3.84A15.83,15.83,0,0,0,65.65,53H48.18V48.33H71.74v4.4a21.61,21.61,0,0,1-3.39,9.9,21,21,0,0,1-7.6,7.1,21.32,21.32,0,0,1-10.5,2.61,22.06,22.06,0,0,1-11.12-2.86,21.07,21.07,0,0,1-8-8A22.66,22.66,0,0,1,28.26,50,22.85,22.85,0,0,1,31.18,38.5a21,21,0,0,1,8-8,22.06,22.06,0,0,1,11.12-2.86A22.28,22.28,0,0,1,62.6,31.12a19.74,19.74,0,0,1,7.82,9.74Z"/></svg>