<svg xmlns="http://www.w3.org/2000/svg" viewBox="0 0 210.76 212.04"><defs><style>.a{fill:#e2dada;}.b{fill:#f7bdc0;}</style></defs><path class="a" d="M52.12,17.72a0,0,0,0,0-.06,0L28.23,38.91a.06.06,0,0,0,0,.06l.36.4s0,0,.06,0l23.83-21.2a0,0,0,0,0,0-.05Z" transform="translate(-0.36 -0.24)"/><path class="a" d="M28.83,18.7a.11.11,0,0,1-.12.11.11.11,0,0,1-.1-.06v0h0l0-.11a1,1,0,0,1-.05-.3,2,2,0,0,1,1.74-2,2,2,0,0,1,1.74.62,1.93,1.93,0,0,1,.35.54,1.58,1.58,0,0,1-.27,1.86.44.44,0,0,0,0,.61l.87.9a.16.16,0,0,0,.22,0l.07-.07a.14.14,0,0,0,.19,0,11.66,11.66,0,0,1,1.13-.94,7.16,7.16,0,0,1,3.67-1.28,30,30,0,0,1,3.16-.25s2.88.13,8-2.1c3.53-1.55,5.22-1.29,5.92-1a.25.25,0,0,1,0,.45,136.55,136.55,0,0,0-16.22,8.87l.08,0-.35.22-.38.25A9.24,9.24,0,0,0,37,26.18h0A137.65,137.65,0,0,0,25.45,42.24a.25.25,0,0,1-.45-.05c-.22-.73-.28-2.44,1.68-5.77,2.8-4.77,3-7.65,3-7.65a31,31,0,0,1,.62-3.12,7.11,7.11,0,0,1,1.84-3.6h0s.22-.23.53-.53a.14.14,0,0,0,0-.19l.11-.11a.15.15,0,0,0,0-.21l-.88-.92a.67.67,0,0,1,0-.92,1.3,1.3,0,0,0,.31-1.38,1.77,1.77,0,0,0-.45-.77,1.79,1.79,0,0,0-1.49-.49,1.8,1.8,0,0,0-1.55,1.76,1.63,1.63,0,0,0,.07.36Z" transform="translate(-0.36 -0.24)"/><path class="b" d="M59.25,13.07c37.1-19.91,83.66-14,115.1,13.74a102.43,102.43,0,0,1-9,160.74c-.83.59,1.3.12,1.66-.13a102.85,102.85,0,0,0,40.67-111c-9.86-37-40.63-66.07-78.08-74A106,106,0,0,0,58,13c-1.26.67.78.35,1.25.1" transform="translate(-0.36 -0.24)"/><path class="b" d="M54.36,190.76A101.12,101.12,0,0,1,14.3,145.05a102.27,102.27,0,0,1,9.86-99.74c.27-.4-1.55-1.75-1.78-1.42A103,103,0,0,0,29,170.08a108,108,0,0,0,25.91,21.81c1.22.74-.11-.85-.56-1.13" transform="translate(-0.36 -0.24)"/><path class="b" d="M197.43,108.08c-.53,0-.64.1-2.45,2.56-5.66,7.48-9.4,11.22-12.82,13.14a9.5,9.5,0,0,1-4.38,1.28c-2.57,0-4.27-1.71-4.27-4.7a7.73,7.73,0,0,1,.21-2.13c.11-.64.21-.86.43-.86a1.58,1.58,0,0,1,.85.22,4.88,4.88,0,0,0,1.18.21c3.73,0,7.9-6.2,7.9-10.58a3.84,3.84,0,0,0-1.28-3.2,3,3,0,0,0-2-.75c-2.15,0-4.66,2-6.74,5.13-.34.34-.71.73-1.12,1.17C162,122,157.52,125.48,153.68,125.48h-.21c-2.25-.1-3.42-2.24-3.42-5.44a28.72,28.72,0,0,1,2.77-10.9c2.25-5,5.88-9.4,7.38-9.4a.7.7,0,0,1,.74.64,1.69,1.69,0,0,0,1.5,1.49c1,0,2.14-1.17,2.24-2.88v-.53a3.67,3.67,0,0,0-4-3.85,8.65,8.65,0,0,0-6,3,31.4,31.4,0,0,0-8,17.93c-.5,1.68-.9,3.4-1.51,5a31.29,31.29,0,0,1-1.48,3.46,12.17,12.17,0,0,1-2,3,2.49,2.49,0,0,1-2.84.62c-1-.36-1.63-2.11-2-3.37a39,39,0,0,1-.06-4.11c0-2.35,0-2.35,1.92-5,14.85-20.08,25-41.45,25-50.42,0-2.46-.64-3.95-2.25-4.38a1.3,1.3,0,0,0-.64-.11c-8.54,0-25.32,35.15-26.6,56.3-.21,4-13,17.41-19.12,20a6,6,0,0,1-2.46.64c-2.56,0-3.95-2.67-3.95-7.59,0-4.06,1-9.93,2.88-17.2.86-3,.75-2.88,2.25-4.06C128.45,96.87,145,69.1,145,59.06c0-2.14-.75-3.42-2.25-3.74-.21,0-.43-.11-.64-.11-6.2,0-17,13.78-24.78,31.84-3,6.94-7.7,20.4-7.7,22,0,.86-4.27,3.21-7.15,3.85a7.55,7.55,0,0,1-2.14.32c-2.46,0-4.59-1.07-4.91-2.46A9,9,0,0,0,94.37,108a1.94,1.94,0,0,0-1.39-.53c-2.62,0-5.68,4.71-6.57,9-.91-.7-3.24-1.17-6.52-1.34-1.82,0-2.56,0-2.56-.43,0-.21.32-.64.85-1.28,4.58-5.93,9.75-15.77,11.38-23.12v0a1.51,1.51,0,0,0,.07-.25c.05-.23.52-2.1,1-4.9a49.44,49.44,0,0,0,.74-8.77h0c.06-6.22-1-13.28-4.92-18.26-3.71-4.67-9.24-7-16.42-7-25.21,0-36,12.09-40,16.09a37.2,37.2,0,0,0-6.5,9,.29.29,0,0,0,.47.33,54.45,54.45,0,0,1,4.9-4.82C32.58,68.61,46.16,54.26,70,54.26c6.15,0,10.84,2,13.91,5.82,4.91,6.17,5,16.31,4.39,22.74V83c-.27,2.94-.67,5-.78,5.61a61,61,0,0,1-8.13,17.64c-4.81,7.38-6.41,9.08-9.3,9.41-13.67,1.38-25.32,5-35,11-.85.64-2.13,1.39-2.88,1.92L28,131.64a18.84,18.84,0,0,0-3,3.14c-2.24,2.56-3.42,4.91-3.42,6.84a3.59,3.59,0,0,0,1.6,3,20.19,20.19,0,0,0,5.77,1c12.39-.64,31-11.54,44-25.85a7.53,7.53,0,0,1,6.19-2.78,23.09,23.09,0,0,1,4.38.42c1.07.11,1.82.22,2.35.22l.36,0a10.15,10.15,0,0,0-.09,1.21,5.55,5.55,0,0,0,1,3.32,2.64,2.64,0,0,0,2.14,1.06c2.46,0,5.34-3.41,6.09-8,.11-.75.21-1.07.43-1.07a9.76,9.76,0,0,1,1.17.43,6.33,6.33,0,0,0,2.89.54,16.73,16.73,0,0,0,7.69-2.25,7.85,7.85,0,0,1,1.07-.53c.1,0,.1,0,.1.1a1.74,1.74,0,0,1-.1.65,70.06,70.06,0,0,0-2.14,15.27c0,6.2,1.6,9.94,4.7,10.58a2.87,2.87,0,0,0,1,.11c4.38,0,11.65-5.45,19.55-14.75,1-1.17,2-2.45,2.24-2.67s.22-.32.32-.32.11.54.43,2.25a9.14,9.14,0,0,0,.61,2.49,6.09,6.09,0,0,0,2.56,3.24,5.64,5.64,0,0,0,3,0,5,5,0,0,0,2-1,18.09,18.09,0,0,0,4.4-5.91c.8,2.82,2.45,4.83,5,5.41a4.71,4.71,0,0,0,1.18.1c3.52,0,8-2.77,13.46-8.54,1.6-1.63,3-3.06,4.17-4.33-.13.44-.26.89-.37,1.34a12.88,12.88,0,0,0-.43,3.32c0,4.38,2.35,7.37,6.2,7.9.32,0,.64.11,1.07.11,5,0,11-5,18.8-15.39,1.28-1.6,1.92-2.77,1.92-3.52,0-.43-.21-.64-.75-.64m-21.25,3.74c1.49-2.78,3.63-5.34,4.48-5.34.22,0,.32.21.32.53,0,1.71-1.92,5-3.52,6.2a1.73,1.73,0,0,1-.86.32.74.74,0,0,1-.75-.75,1.69,1.69,0,0,1,.33-1m-38.65,0c3.52-21,17-49.68,23.29-49.68,1.06,0,1.49.86,1.49,2.46,0,7.27-10.57,29.7-23.39,47.54a12.8,12.8,0,0,1-1.61,2.14c-.1,0-.1-.11-.1-.22a16.25,16.25,0,0,1,.32-2.24M118.62,92c7.48-18.16,16.77-32.26,22.75-34.29a1.34,1.34,0,0,1,.64-.11c.75,0,1.07.64,1.07,1.82,0,4.8-5.77,17.94-13.35,28.95A105.65,105.65,0,0,1,115.41,105l-2,1.71c0-.64,3.53-10.47,5.24-14.74m-59.13,36c-9.08,7.37-19.87,13.14-28.21,15.06a17.62,17.62,0,0,1-3.1.54A9.86,9.86,0,0,1,24,143c-.11,0-.58-.12-.86-1.06v-.43a7.09,7.09,0,0,1,.64-2.57A7.9,7.9,0,0,1,25.09,137a25.09,25.09,0,0,1,5.56-5.54c6.41-4.91,18.05-10.06,27.45-12.09a113.4,113.4,0,0,1,12.07-1.81h.21c0,.53-7.26,7.37-10.89,10.36m31.14-7.88a1.26,1.26,0,0,1-.86.42c-.32,0-.42-.32-.42-.85a6.5,6.5,0,0,1,.1-1.28c.32-2.25,2.57-7.8,3-7.8.11,0,.11,0,.11.21a4.35,4.35,0,0,0,.64,1,3.07,3.07,0,0,1,.43,1.82,9.34,9.34,0,0,1-3,6.52" transform="translate(-0.36 -0.24)"/><path class="a" d="M64.13,51.28c1.23-6.37,1-10.82-1-11-2.81-.2-8.06,8.67-11.73,19.8a70.11,70.11,0,0,0-3,12.17L.36,212.29,55.39,75a74.85,74.85,0,0,0,6.2-14.16c.71-2.16,1.32-4.24,1.8-6.21l-.9.11-1.05.15c-.18.62-.4,1.28-.61,1.92C58.74,63.15,55.66,68.19,54,68.07s-1.4-5.36.69-11.69S59.81,45,61.52,45.12c1.19.09,1.41,2.64.72,6.34Z" transform="translate(-0.36 -0.24)"/><path class="b" d="M34.57,127s-5.31,3.64-6.9,4.92l-1,3.2a41.28,41.28,0,0,1,8.11-6.38Z" transform="translate(-0.36 -0.24)"/><path class="b" d="M67.6,191.19a.21.21,0,0,1-.26,0,.52.52,0,0,1-.18-.26,4.13,4.13,0,0,0-.26-.51,4.18,4.18,0,0,0-.5-.64,3.36,3.36,0,0,0-.91-.63,3.06,3.06,0,0,0-1.1-.33,2.35,2.35,0,0,0-1,.08,2,2,0,0,0-.77.44,2.38,2.38,0,0,0-.55.71,1.76,1.76,0,0,0-.21,1,2.34,2.34,0,0,0,.3.9,4.52,4.52,0,0,0,.65.84l.81.82a10.61,10.61,0,0,1,.8.85,3.59,3.59,0,0,1,.61.92,2.6,2.6,0,0,1,.24,1,2.74,2.74,0,0,1-.31,1.2,4,4,0,0,1-.86,1.15,3.32,3.32,0,0,1-1.17.69,3.43,3.43,0,0,1-1.41.16A4.24,4.24,0,0,1,60,199.2a4.56,4.56,0,0,1-1.63-1.27,4.7,4.7,0,0,1-.82-1.68l.37-.22a.29.29,0,0,1,.27,0,.34.34,0,0,1,.12.18l.15.34c.06.14.13.29.22.47a3.08,3.08,0,0,0,.34.52,4.46,4.46,0,0,0,.53.54,3.62,3.62,0,0,0,.78.5,3.54,3.54,0,0,0,1.22.37,2.78,2.78,0,0,0,1.09-.11,2.43,2.43,0,0,0,.92-.53,2.91,2.91,0,0,0,.66-.88,2,2,0,0,0,.23-1,2.18,2.18,0,0,0-.3-.91,4.47,4.47,0,0,0-.65-.83l-.82-.81a10.64,10.64,0,0,1-.81-.84,3.83,3.83,0,0,1-.6-.92A2.52,2.52,0,0,1,61,191a2.92,2.92,0,0,1,.33-1.25,3.38,3.38,0,0,1,.71-.93,3.08,3.08,0,0,1,1-.58,3.5,3.5,0,0,1,1.27-.13,4,4,0,0,1,1.42.42,4.57,4.57,0,0,1,1.35,1,3.8,3.8,0,0,1,.8,1.4Z" transform="translate(-0.36 -0.24)"/><path class="b" d="M84.8,207.94a1.76,1.76,0,0,1-1.18-.75,2,2,0,0,1-.15-1.52l1.26-5.56-1.17-.26a.2.2,0,0,1-.13-.08.19.19,0,0,1,0-.15l.07-.31,1.41.22.85-2.87a.52.52,0,0,1,.1-.11.19.19,0,0,1,.15,0l.37.09-.7,3.1,2.56.58-.13.58-2.56-.58-1.25,5.52a1.79,1.79,0,0,0,0,.59,1.14,1.14,0,0,0,.15.45.92.92,0,0,0,.31.31,1.33,1.33,0,0,0,.42.18,1.63,1.63,0,0,0,.53,0,2.22,2.22,0,0,0,.41-.11,2,2,0,0,0,.29-.13.3.3,0,0,1,.18,0,.19.19,0,0,1,.11.11l.13.39a2.34,2.34,0,0,1-.91.38,2.6,2.6,0,0,1-1,0" transform="translate(-0.36 -0.24)"/><path class="b" d="M109.51,201.78a4,4,0,0,1,1.62.26,3.31,3.31,0,0,1,1.21.83,3.7,3.7,0,0,1,.78,1.34,5.63,5.63,0,0,1,.31,1.76,5.52,5.52,0,0,1-.21,1.77,3.78,3.78,0,0,1-.7,1.37,3.07,3.07,0,0,1-1.17.9,4.37,4.37,0,0,1-3.21.09,3.23,3.23,0,0,1-1.22-.83,3.61,3.61,0,0,1-.78-1.32,5.69,5.69,0,0,1-.31-1.77,5.52,5.52,0,0,1,.21-1.77,3.75,3.75,0,0,1,.7-1.38,3.41,3.41,0,0,1,1.18-.9,4,4,0,0,1,1.59-.35m.23,7.95a3,3,0,0,0,1.29-.29,2.49,2.49,0,0,0,.91-.76,3.3,3.3,0,0,0,.53-1.17,6,6,0,0,0,.14-1.52,5.75,5.75,0,0,0-.23-1.5,3.21,3.21,0,0,0-.59-1.15,2.48,2.48,0,0,0-1-.71,3.44,3.44,0,0,0-2.6.07,2.52,2.52,0,0,0-.91.77,3.27,3.27,0,0,0-.53,1.18,6,6,0,0,0-.15,1.51,6.22,6.22,0,0,0,.23,1.51,3.3,3.3,0,0,0,.6,1.13,2.31,2.31,0,0,0,1,.71,3.13,3.13,0,0,0,1.31.22" transform="translate(-0.36 -0.24)"/><path class="b" d="M133,200.77a4.82,4.82,0,0,1,.2-1,2.8,2.8,0,0,1,.37-.8,2.36,2.36,0,0,1,.59-.59,2.29,2.29,0,0,1,.82-.37,2.1,2.1,0,0,1,.5-.09,1.42,1.42,0,0,1,.47,0l.08.55a.16.16,0,0,1-.12.18l-.31,0a2.06,2.06,0,0,0-.54.08,2.3,2.3,0,0,0-.79.36,2,2,0,0,0-.53.6,2.93,2.93,0,0,0-.32.83,7.75,7.75,0,0,0-.14,1.07l1.39,5.21-.78.21L131.71,199l.41-.11a.28.28,0,0,1,.21,0,.35.35,0,0,1,.13.17Z" transform="translate(-0.36 -0.24)"/><path class="b" d="M154.22,194.72l.08.14a5.6,5.6,0,0,0,1,1.34,3.39,3.39,0,0,0,1.11.76,2.6,2.6,0,0,0,1.2.17,3.25,3.25,0,0,0,1.24-.39,3.78,3.78,0,0,0,.89-.64,3.5,3.5,0,0,0,.53-.64,3.64,3.64,0,0,0,.29-.51.66.66,0,0,1,.17-.25.19.19,0,0,1,.19,0l.32.13a2.47,2.47,0,0,1-.24.67,4.15,4.15,0,0,1-.47.68,5.56,5.56,0,0,1-.65.63,5.1,5.1,0,0,1-.78.53,4,4,0,0,1-1.51.48,3.18,3.18,0,0,1-1.47-.19,3.81,3.81,0,0,1-1.35-.86,5.87,5.87,0,0,1-1.14-1.53,5.24,5.24,0,0,1-.57-1.57,3.82,3.82,0,0,1,0-1.51,3.38,3.38,0,0,1,.63-1.31,3.78,3.78,0,0,1,1.25-1,3.33,3.33,0,0,1,1.26-.41,3,3,0,0,1,1.26.12,3.34,3.34,0,0,1,1.16.67,4.47,4.47,0,0,1,1,1.25.41.41,0,0,1,.07.25.16.16,0,0,1-.11.13Zm4.65-3.11a3.5,3.5,0,0,0-.74-1,2.51,2.51,0,0,0-.89-.54,2.37,2.37,0,0,0-1-.11,2.61,2.61,0,0,0-1,.33,3,3,0,0,0-.92.72,2.34,2.34,0,0,0-.5.93,3,3,0,0,0-.1,1.08,4.16,4.16,0,0,0,.3,1.19Z" transform="translate(-0.36 -0.24)"/></svg>