<svg xmlns="http://www.w3.org/2000/svg" viewBox="0 0 100 100"><defs><style>.a{fill:#515151;}</style></defs><path class="a" d="M63.54,40.86a13.51,13.51,0,0,0-5.28-5.94,15.16,15.16,0,0,0-8-2.11A16.35,16.35,0,0,0,42,34.92a14.81,14.81,0,0,0-5.78,6A18.87,18.87,0,0,0,34.07,50a18.67,18.67,0,0,0,2.11,9,14.86,14.86,0,0,0,5.78,6,16.25,16.25,0,0,0,8.26,2.11,15,15,0,0,0,10.56-3.84A15.82,15.82,0,0,0,65.61,53H48.15V48.33H71.71v4.4a21.84,21.84,0,0,1-3.39,9.9,20.92,20.92,0,0,1-7.61,7.1,21.28,21.28,0,0,1-10.49,2.61A22.06,22.06,0,0,1,39.1,69.48a21.07,21.07,0,0,1-8-8A22.66,22.66,0,0,1,28.23,50,22.85,22.85,0,0,1,31.15,38.5a21,21,0,0,1,8-8,22.06,22.06,0,0,1,11.12-2.86,22.28,22.28,0,0,1,12.35,3.46,19.74,19.74,0,0,1,7.82,9.74Z"/><path class="a" d="M0,0V100H100V0ZM47.58,50,3.35,94.23V5.77ZM5.74,3.38H94.2L50,47.61ZM50,52.39,94.2,96.62H5.74ZM52.36,50,96.59,5.77V94.23Z"/></svg>